<?xml version="1.0" encoding="UTF-8" standalone="no"?>
<!-- Created with Inkscape (http://www.inkscape.org/) -->

<svg
   width="113.48165mm"
   height="65.809059mm"
   viewBox="0 0 113.48165 65.809059"
   version="1.1"
   id="svg1"
   xml:space="preserve"
   inkscape:version="1.4.2 (ebf0e940d0, 2025-05-08)"
   sodipodi:docname="ambxst.svg"
   xmlns:inkscape="http://www.inkscape.org/namespaces/inkscape"
   xmlns:sodipodi="http://sodipodi.sourceforge.net/DTD/sodipodi-0.dtd"
   xmlns="http://www.w3.org/2000/svg"
   xmlns:svg="http://www.w3.org/2000/svg"><sodipodi:namedview
     id="namedview1"
     pagecolor="#ffffff"
     bordercolor="#000000"
     borderopacity="0.25"
     inkscape:showpageshadow="2"
     inkscape:pageopacity="0.0"
     inkscape:pagecheckerboard="0"
     inkscape:deskcolor="#d1d1d1"
     inkscape:document-units="mm"
     inkscape:zoom="1.5465208"
     inkscape:cx="491.74898"
     inkscape:cy="563.19968"
     inkscape:window-width="1908"
     inkscape:window-height="1028"
     inkscape:window-x="0"
     inkscape:window-y="0"
     inkscape:window-maximized="1"
     inkscape:current-layer="layer1"><inkscape:page
       x="-2.8286406e-13"
       y="0"
       width="113.48166"
       height="65.809059"
       id="page2"
       margin="0"
       bleed="0" /></sodipodi:namedview><defs
     id="defs1" /><g
     inkscape:label="Capa 1"
     inkscape:groupmode="layer"
     id="layer1"
     transform="translate(-49.472845,-110.2228)"><path
       style="fill:#000000"
       d="m 89.37993,175.74489 c -7.42374,-0.58613 -8.57834,-0.84589 -10.817,-2.43366 -2.5836,-1.83242 -3.64956,-3.86492 -4.44054,-8.46692 -0.22506,-1.30943 -0.43397,-2.40555 -0.46424,-2.43582 -0.22793,-0.22792 -0.689,0.32092 -1.0172,1.21084 -1.19088,3.22912 -4.05827,3.56317 -4.4193,0.51484 l -0.0784,-0.66175 -0.72534,0.95029 c -1.94371,2.54653 -2.96653,3.16519 -4.09519,2.477 -0.82229,-0.50138 -1.1648,-1.90969 -0.7963,-3.27425 l 0.18611,-0.6892 -0.52004,0.42462 c -2.12956,1.73881 -2.66721,2.02683 -3.55994,1.90709 -1.574439,-0.21118 -2.174139,-1.95852 -1.206449,-3.51521 l 0.399289,-0.64233 -1.074469,-0.0787 c -6.53652,-0.47905 -5.12866,-6.48022 1.968239,-8.38987 l 1.32292,-0.35597 4.96093,-0.005 c 4.71875,-0.005 5.01907,-0.0196 6.15157,-0.30645 1.63965,-0.41533 1.53181,-0.26727 1.43442,-1.96944 l -0.0837,-1.46365 -1.79982,-0.0721 c -1.31902,-0.0528 -2.14919,-0.16278 -3.10764,-0.41163 l -1.30782,-0.33956 -0.66148,0.52668 c -3.03264,2.41463 -5.48651,1.41293 -4.51909,-1.84475 0.27026,-0.91006 0.25028,-0.91672 -0.88994,-0.29653 -3.932469,2.13897 -6.353879,0.29233 -3.874989,-2.95519 0.31175,-0.40842 0.403,-0.6035 0.25588,-0.54704 -0.32849,0.12605 -2.57085,0.47948 -3.04057,0.47923 -2.65792,-10e-4 -3.2271,-2.7447 -0.8262,-3.98207 l 0.49672,-0.256 -1.42023,-0.96146 c -2.253408,-1.5255 -2.788837,-2.73728 -1.98515,-4.49275 1.55769,-3.40245 7.55996,-2.70036 14.902019,1.7431 2.16774,1.31193 3.27981,1.8341 4.91115,2.30604 1.14088,0.33005 3.13211,0.69944 3.23199,0.59956 0.0426,-0.0426 0.4673,-3.18592 0.4673,-3.45895 0,-0.0331 -0.61019,-0.36381 -1.35599,-0.73499 -0.74579,-0.37118 -1.84211,-1.05986 -2.43626,-1.5304 l -1.08026,-0.85552 -0.68192,0.25911 c -3.30919,1.25739 -5.38486,-0.84811 -3.33977,-3.38777 l 0.63688,-0.7909 h -1.59295 c -3.80425,0 -4.95115,-2.41943 -1.98726,-4.19221 l 0.7163,-0.42844 -1.49957,-0.47931 c -3.604979,-1.15229 -4.120789,-3.4485 -0.98208,-4.37192 l 0.99965,-0.29411 -0.7925,-1.25791 c -1.85329,-2.94173 -1.7152,-4.74759 0.44751,-5.85189 3.33065,-1.70067 8.21378,1.6293 12.55384,8.56089 1.31548,2.10098 2.01733,3.09958 2.74302,3.90284 l 0.45387,0.50237 0.53691,-0.67924 c 1.59827,-2.02196 3.6227,-3.34843 5.72154,-3.74891 7.56718,-1.44391 43.25519,-1.24049 48.35362,0.27562 1.70235,0.50622 3.65227,1.85518 4.85583,3.35926 l 0.63048,0.7879 0.31425,-0.29142 c 0.56657,-0.52542 1.40541,-1.71142 2.80737,-3.96922 4.74188,-7.63662 10.26516,-10.99865 13.3307,-8.11443 1.36239,1.28181 1.33374,2.63132 -0.10603,4.99386 -0.46067,0.75592 -0.85925,1.4146 -0.88575,1.46374 -0.0265,0.0491 0.26513,0.18182 0.64806,0.29487 3.20215,0.9453 2.8029,3.2686 -0.75907,4.41713 l -1.56715,0.50532 0.72535,0.40936 c 3.05388,1.7235 1.89162,4.20585 -1.96921,4.20585 -0.89127,0 -1.62053,0.0191 -1.62058,0.0424 -5e-5,0.0233 0.23137,0.32098 0.51425,0.66145 2.20463,2.65347 -0.23243,5.02492 -3.46652,3.37319 -0.36269,-0.18523 -0.39644,-0.17066 -1.28122,0.55321 -1.0135,0.82918 -2.71533,1.84596 -3.47258,2.07475 -0.57501,0.17373 -0.55994,0.0664 -0.30165,2.14854 0.23525,1.8964 0.075,1.74392 1.55399,1.47837 2.73542,-0.49113 4.3365,-1.13668 7.51198,-3.02883 8.3255,-4.96087 16.11846,-4.57971 14.53337,0.71083 -0.25287,0.84401 -2.85163,3.16472 -3.54389,3.16472 -0.28893,0 -0.12823,0.23801 0.27289,0.40415 1.3467,0.55783 1.95724,1.93563 1.32046,2.97988 -0.5961,0.97753 -2.09166,1.17751 -4.75817,0.63624 l -0.44356,-0.09 0.47552,0.66189 c 2.2692,3.15856 -0.18168,4.87163 -3.99912,2.79523 -1.14939,-0.62518 -1.14176,-0.6283 -0.88416,0.36068 0.83314,3.19863 -1.56609,4.14518 -4.53361,1.7886 l -0.70036,-0.55618 -0.6887,0.19994 c -1.21743,0.35344 -3.00551,0.60919 -4.25916,0.60919 h -1.22071 l -0.0709,1.48828 c -0.0821,1.72357 -0.19123,1.57167 1.4225,1.98044 1.13345,0.28711 1.42887,0.30172 6.15157,0.30426 5.14853,0.003 5.28436,0.0144 7.14375,0.61353 6.49262,2.09194 7.2646,7.62814 1.13306,8.12565 l -1.11377,0.0904 0.35265,0.5329 c 0.54368,0.82155 0.58823,2.25691 0.0885,2.85083 -1.041,1.23715 -2.13221,1.08227 -4.07917,-0.57897 -1.17748,-1.00468 -1.14816,-0.99416 -1.00069,-0.35911 0.99978,4.30528 -2.11293,4.82328 -4.92174,0.81905 l -0.57141,-0.81462 -0.15434,0.60499 c -0.76761,3.00903 -3.31365,2.70429 -4.51474,-0.54039 -0.26743,-0.72245 -0.45832,-1.03608 -0.71021,-1.16685 l -0.34447,-0.17883 -0.36502,2.20929 c -1.33268,8.06622 -4.02028,10.28354 -13.42146,11.07296 -2.22497,0.18683 -4.28828,0.36954 -4.58514,0.40602 l -0.53973,0.0663 c 0,0 -26.73356,-0.005 -30.30462,-0.28695 z m 25.49707,-3.55975 c 18.80326,-0.87075 18.74616,-0.83191 20.22647,-13.75743 1.08133,-9.44174 0.78768,-18.5609 -0.91592,-28.44271 -0.8411,-4.87884 -2.46279,-6.49962 -6.87513,-6.87126 -13.09805,-1.1032 -40.55984,-0.9438 -44.60158,0.25888 -2.10004,0.62491 -3.93591,2.84307 -4.41184,5.33057 -2.30262,12.03472 -2.24924,27.21807 0.13179,37.48488 0.47738,2.05842 2.23279,4.05876 4.15783,4.73795 2.63178,0.92854 22.60647,1.70748 32.28838,1.25912 z m -17.59479,-4.10303 c -13.78899,-0.59353 -14.96497,-1.14215 -16.05707,-7.49102 -1.46201,-8.49922 -1.30483,-19.7119 0.39658,-28.29099 0.62803,-3.16673 2.27993,-4.59984 5.79108,-5.02404 11.81288,-1.42717 36.57918,-1.07383 40.09638,0.57207 1.60738,0.75219 2.75058,2.30731 3.17546,4.31968 1.76684,8.36827 1.82426,21.65802 0.12828,29.6921 -1.17081,5.54627 -3.47892,6.19194 -22.48436,6.28969 -4.65666,0.024 -9.62752,-0.006 -11.04635,-0.0675 z m 17.99166,-4.10055 c 11.00136,-0.56709 11.25499,-0.68496 11.95286,-5.55457 0.95043,-6.63194 0.97871,-14.77885 0.0746,-21.49668 -0.64109,-4.76364 -1.13461,-5.40507 -4.4207,-5.7456 -9.0355,-0.93633 -26.39223,-0.90062 -33.6579,0.0693 -3.40842,0.45498 -3.76671,1.03473 -4.43059,7.16914 -0.90385,8.35187 -0.33194,21.25217 1.03364,23.31572 0.96803,1.46278 3.16066,1.88885 11.78714,2.29045 2.22263,0.10347 15.41969,0.0678 17.66093,-0.0477 z m -45.22529,-4.96975 c 0.60832,-0.11532 1.57162,-0.38917 2.14068,-0.60855 l 1.03465,-0.39886 -0.0685,-0.48286 c -0.0377,-0.26557 -0.1051,-0.76563 -0.14979,-1.11124 -0.0447,-0.34561 -0.0959,-0.62839 -0.11378,-0.62839 -0.0179,0 -0.68397,0.13087 -1.48018,0.29082 -1.31183,0.26353 -1.87587,0.29229 -6.01171,0.30654 -4.24536,0.0146 -4.63408,0.0356 -5.56671,0.3004 -1.69497,0.48122 -1.69683,0.483 -0.69003,0.65619 0.49441,0.0851 1.96261,0.45653 3.26266,0.82551 3.83794,1.08928 5.44168,1.26773 7.64274,0.85044 z m 76.21414,0.0134 c 0.61907,-0.10796 2.1598,-0.49174 3.42384,-0.85286 1.26404,-0.36112 2.70308,-0.73011 3.19787,-0.81999 2.44835,-0.44475 -0.97206,-0.97437 -6.32358,-0.97915 -4.16352,-0.004 -4.59535,-0.0259 -5.80853,-0.29893 -1.5538,-0.34964 -1.37681,-0.4594 -1.48281,0.91956 -0.0794,1.03323 -0.0656,1.13541 0.1627,1.20377 0.13721,0.0411 0.60666,0.20512 1.04323,0.36451 1.78949,0.65336 3.78196,0.81279 5.78728,0.46309 z m -73.71905,-15.6663 v -1.17821 l -0.69453,-0.0909 c -3.07338,-0.40226 -5.99534,-1.53883 -9.68531,-3.76733 -2.63679,-1.59245 -4.1973,-2.30186 -5.965489,-2.71194 -1.09116,-0.25305 -1.17138,-0.20368 -0.40183,0.24731 0.90139,0.52825 2.447079,1.7952 4.021189,3.29606 3.83889,3.66023 7.41501,5.26404 11.96529,5.36615 l 0.76068,0.0171 z m 69.9403,0.97315 c 4.05453,-0.60204 6.81258,-2.06114 10.48332,-5.54602 1.38412,-1.31404 2.71405,-2.40258 3.92652,-3.21384 0.21821,-0.14601 0.1909,-0.1568 -0.21265,-0.084 -1.69349,0.30563 -3.86222,1.26188 -6.68072,2.94571 -3.29688,1.96962 -5.72235,2.94724 -8.63102,3.47886 l -1.62159,0.29637 v 1.16398 1.16397 h 0.67756 c 0.37265,0 1.29901,-0.0923 2.05858,-0.20506 z m -68.4367,-14.44628 c 0.0382,-0.20009 0.13861,-0.80148 0.22318,-1.33642 l 0.15376,-0.97262 -1.12425,-1.04222 c -1.35062,-1.25207 -2.14811,-2.30796 -3.33896,-4.42087 -1.79148,-3.17858 -3.24876,-4.99677 -5.07605,-6.33317 -1.0856,-0.79396 -1.09503,-0.76158 -0.23164,0.79534 0.65369,1.17878 1.16739,2.39551 2.64522,6.26543 1.40593,3.68162 6.39644,8.89087 6.74874,7.04453 z m 65.42828,-0.15296 c 2.9133,-1.73523 4.59354,-4.03549 6.29025,-8.61136 0.85236,-2.29874 1.80392,-4.35196 2.49839,-5.39089 0.59105,-0.88419 0.49347,-0.87217 -0.81254,0.10009 -1.87128,1.39308 -3.13419,2.97467 -4.85855,6.08455 -1.38709,2.50161 -3.16177,4.71005 -4.33941,5.40002 -0.41701,0.24433 -0.41307,0.13438 -0.0754,2.10753 0.16678,0.97455 0.17739,0.97709 1.29726,0.31006 z"
       id="path1"
       sodipodi:nodetypes="sssssscssscsssccsccscccscssssscscsssssssscsscsscsscsssscsssscssssscscssssssssssssssscsssscsscssccscssssscssscssscsssssscsssssssssscsscssssssscccsccssssscsccsssccssssccssssssccssscsscccssssscssssssssssssss" /><circle
       style="fill:#000000;stroke-width:0.264583"
       id="path4"
       cx="90.730438"
       cy="150.31009"
       r="4.7784696" /><circle
       style="fill:#000000;stroke-width:0.264583"
       id="circle4"
       cx="121.76024"
       cy="150.31009"
       r="4.7784696" /></g></svg>
